Coordinates
version=1
nRows=10
nColumns=22
inDegrees=yes

Units are S.I. units (second, meters, Newtons, ...)
If the header above contains a line with 'inDegrees', this indicates whether rotational values are in degrees (yes) or radians (no).

endheader
time	pelvis_tilt	pelvis_list	pelvis_rotation	pelvis_tx	pelvis_ty	pelvis_tz	hip_flexion_r	hip_adduction_r	hip_rotation_r	knee_angle_r	ankle_angle_r	subtalar_angle_r	hip_flexion_l	hip_adduction_l	hip_rotation_l	knee_angle_l	ankle_angle_l	subtalar_angle_l	lumbar_extension	lumbar_bending	lumbar_rotation
      4.14000000	      6.40653583	      5.81754976	    163.58758054	     -0.47919879	      0.85003804	     -0.35833652	     -7.03283537	      3.14737091	     15.75716228	    -16.58951575	     20.74537425	     -5.34896850	     33.83181772	    -18.17430882	     -3.45403699	    -20.90183120	     -0.52938083	      3.36861779	     -1.62176921	      0.00823862	     22.55556909
      4.15000000	      6.32284409	      5.37124495	    163.78317850	     -0.48894516	      0.84997901	     -0.35526015	     -7.04282954	      2.39907171	     15.63970728	    -17.58713627	     20.39746381	     -4.55450708	     34.03203366	    -17.39081392	     -3.36237527	    -22.18856831	     -1.55526309	      3.93484128	     -1.61741524	     -0.50510100	     22.23327799
      4.16000000	      6.17957399	      4.91400668	    164.07920554	     -0.49862222	      0.85032007	     -0.35207934	     -7.04983879	      1.65402925	     15.43004730	    -18.67927420	     19.88503817	     -3.61700943	     34.18148346	    -16.54441237	     -3.28089518	    -23.48692401	     -2.17947371	      4.32938366	     -1.69784015	     -1.06143015	     21.82513136
      4.17000000	      5.99610009	      4.47364784	    164.45199375	     -0.50822231	      0.85105824	     -0.34882999	     -7.03955812	      0.94164021	     15.13425742	    -19.86266733	     19.15015758	     -2.51099589	     34.25557317	    -15.67262037	     -3.21162565	    -24.73505738	     -2.39132286	      4.55080620	     -1.84669975	     -1.61627059	     21.36461764
      4.18000000	      5.79162510	      4.08735974	    164.87583719	     -0.51771642	      0.85216264	     -0.34556836	     -6.99586233	      0.30550992	     14.78504016	    -21.14021806	     18.20674247	     -1.26776252	     34.23986661	    -14.82713509	     -3.15169223	    -25.88908849	     -2.21900652	      4.63269126	     -2.05163619	     -2.11743663	     20.87485649
      4.19000000	      5.58322553	      3.78570335	    165.31016755	     -0.52704116	      0.85361325	     -0.34235796	     -6.88714563	     -0.22228229	     14.41021418	    -22.52847441	     17.05351034	      0.12078297	     34.11538421	    -14.06036790	     -3.10917297	    -26.89248202	     -1.82213647	      4.63214909	     -2.30194756	     -2.52188853	     20.39315523
      4.20000000	      5.39714012	      3.59305803	    165.72108957	     -0.53616361	      0.85535347	     -0.33925109	     -6.67912084	     -0.61506941	     14.04382171	    -24.02609843	     15.66643398	      1.64218994	     33.88643421	    -13.41743306	     -3.09158558	    -27.71394741	     -1.27593403	      4.58406056	     -2.56953679	     -2.79074914	     19.95018017
      4.21000000	      5.25485100	      3.52185904	    166.07275862	     -0.54505355	      0.85731386	     -0.33629558	     -6.33618304	     -0.86113439	     13.71681050	    -25.63702847	     14.04791827	      3.24253103	     33.55980577	    -12.93313525	     -3.11687628	    -28.33127564	     -0.64512970	      4.51072337	     -2.82671502	     -2.90122530	     19.57168144
      4.22000000	      5.17804587	      3.57761838	    166.35157448	     -0.55367540	      0.85941255	     -0.33351235	     -5.82294775	     -0.95346205	     13.43254034	    -27.36472021	     12.20968149	      4.83945951	     33.16304879	    -12.61933286	     -3.16148166	    -28.74557054	      0.00414831	      4.42593008	     -3.04768271	     -2.84246252	     19.26646346
      4.23000000	      5.15074561	      3.71831148	    166.49462592	     -0.56202643	      0.86161892	     -0.33101075	     -5.13050015	     -0.94650071	     13.25438263	    -29.21695477	     10.22181763	      6.43477327	     32.67197267	    -12.47682044	     -3.33893363	    -28.96864319	      0.67451954	      4.33762577	     -3.23053589	     -2.66955384	     19.08560805
